<svg xmlns="http://www.w3.org/2000/svg" width="21.667" height="26.393" viewBox="0 0 21.667 26.393"><g transform="translate(-45.84)"><path d="M65.961,2.062H64.414V1.546A1.548,1.548,0,0,0,62.868,0h0a1.548,1.548,0,0,0-1.546,1.546v.515H58.228V1.546A1.548,1.548,0,0,0,56.682,0h0a1.548,1.548,0,0,0-1.546,1.546v.515H52.042V1.546A1.548,1.548,0,0,0,50.5,0h0a1.548,1.548,0,0,0-1.546,1.546v.515H47.4A1.557,1.557,0,0,0,45.84,3.608V24.847A1.557,1.557,0,0,0,47.4,26.393H65.961a1.548,1.548,0,0,0,1.546-1.546V3.608A1.548,1.548,0,0,0,65.961,2.062Zm-3.608-.515a.515.515,0,0,1,1.031,0V3.608a.515.515,0,0,1-1.031,0Zm-6.186,0a.515.515,0,1,1,1.031,0V3.608a.515.515,0,1,1-1.031,0Zm-6.186,0a.515.515,0,0,1,1.031,0V3.608a.515.515,0,0,1-1.031,0ZM47.4,3.093h1.546v.515a1.546,1.546,0,1,0,3.093,0V3.093h3.093v.515a1.546,1.546,0,1,0,3.093,0V3.093h3.093v.515a1.546,1.546,0,0,0,3.093,0V3.093H65.96a.516.516,0,0,1,.515.515V6.7h-19.6V3.608a.531.531,0,0,1,.532-.515ZM65.961,25.362H47.4a.531.531,0,0,1-.532-.515V7.732H66.476V24.847A.516.516,0,0,1,65.961,25.362Z" fill="#c5c5c5" fill-rule="evenodd"/><path d="M169.777,224.63l-1.1-2.237a.692.692,0,0,0-1.244,0l-1.1,2.241-2.474.352h0a.693.693,0,0,0-.385,1.182l1.793,1.737-.43,2.461h0a.693.693,0,0,0,1.005.732l2.208-1.17,2.173,1.151a.694.694,0,0,0,1.042-.714l-.43-2.461,1.77-1.715a.693.693,0,0,0-.362-1.205Z" transform="translate(-111.377 -210.557)" fill="#c5c5c5" fill-rule="evenodd"/></g></svg>