<svg xmlns="http://www.w3.org/2000/svg" width="26.719" height="20.353" viewBox="0 0 26.719 20.353"><g transform="translate(0 -61)"><g transform="translate(0 61)"><path d="M24.371,61H2.348A2.352,2.352,0,0,0,0,63.348V79a2.352,2.352,0,0,0,2.348,2.348H24.371A2.352,2.352,0,0,0,26.719,79V63.348A2.352,2.352,0,0,0,24.371,61Zm-.324,1.566L13.409,73.2,2.68,62.566ZM1.566,78.68V63.665l7.54,7.475Zm1.107,1.107,7.545-7.545,2.644,2.621a.783.783,0,0,0,1.1,0l2.578-2.578,7.5,7.5ZM25.154,78.68l-7.5-7.5,7.5-7.5Z" transform="translate(0 -61)" fill="#bcbcbc"/></g></g></svg>