<svg xmlns="http://www.w3.org/2000/svg" width="28" height="28" viewBox="0 0 28 28"><g transform="translate(9.999 9.999)"><path d="M140,136a4,4,0,1,0,4,4A4.006,4.006,0,0,0,140,136Zm0,5.716A1.715,1.715,0,1,1,141.716,140,1.717,1.717,0,0,1,140,141.716Z" transform="translate(-136 -136)" fill="#434d53"/></g><path d="M26.833,12.833h-2.4a10.515,10.515,0,0,0-9.264-9.265v-2.4a1.167,1.167,0,0,0-2.333,0v2.4a10.515,10.515,0,0,0-9.265,9.265h-2.4a1.167,1.167,0,0,0,0,2.333h2.4a10.515,10.515,0,0,0,9.265,9.264v2.4a1.167,1.167,0,0,0,2.333,0v-2.4a10.515,10.515,0,0,0,9.264-9.264h2.4a1.167,1.167,0,0,0,0-2.333ZM14,22.167A8.167,8.167,0,1,1,22.167,14,8.176,8.176,0,0,1,14,22.167Z" fill="#434d53"/></svg>