<svg xmlns="http://www.w3.org/2000/svg" width="32.566" height="27.93" viewBox="0 0 32.566 27.93"><g transform="translate(-0.001 -0.5)"><path d="M184,102.823a3.253,3.253,0,1,0-3.253-3.253A3.257,3.257,0,0,0,184,102.823Zm0-4.6a1.345,1.345,0,1,1-1.345,1.345A1.347,1.347,0,0,1,184,98.224Zm0,0" transform="translate(-169.252 -89.722)" fill="#4e5859"/><path d="M31.377.5H1.19A1.19,1.19,0,0,0,0,1.689V27.241A1.19,1.19,0,0,0,1.19,28.43H31.377a1.19,1.19,0,0,0,1.189-1.189V1.689A1.19,1.19,0,0,0,31.377.5Zm-.719,1.908v15.1l-6-6a1,1,0,0,0-1.419,0L14.751,20,9.329,14.574a1,1,0,0,0-1.42,0l-6,6V2.408ZM1.909,26.522V23.273l6.71-6.71,5.421,5.421a1,1,0,0,0,1.42,0L23.948,13.5l6.711,6.711v6.315Zm0,0" fill="#434d53"/></g></svg>