<svg xmlns="http://www.w3.org/2000/svg" width="31" height="31" viewBox="0 0 31 31"><g transform="translate(2.583)"><path d="M47.75,0A7.75,7.75,0,0,0,40,7.75v5.683a3.621,3.621,0,0,0,3.617,3.617h.517V16.017h-.517a2.586,2.586,0,0,1-2.583-2.583V7.75a6.717,6.717,0,0,1,13.433,0v5.683a2.586,2.586,0,0,1-2.583,2.583h-.517V17.05h.517A3.621,3.621,0,0,0,55.5,13.433V7.75A7.75,7.75,0,0,0,47.75,0Z" transform="translate(-40)" fill="#4e5859"/></g><g transform="translate(2.584 23.201)"><path d="M41.677,360.4l.378-.595-.873-.554-.378.6a5.15,5.15,0,0,0,.213,5.83v1.374h1.033V365.5a.517.517,0,0,0-.113-.323A4.116,4.116,0,0,1,41.677,360.4Z" transform="translate(-40.003 -359.248)" fill="#4e5859"/></g><g transform="translate(19.117)"><path d="M305.3,0h-6.717A2.586,2.586,0,0,0,296,2.583V7.75a2.586,2.586,0,0,0,2.583,2.583h1.033V12.4a.517.517,0,0,0,.319.477.51.51,0,0,0,.2.039.517.517,0,0,0,.365-.151l2.432-2.432H305.3a2.586,2.586,0,0,0,2.583-2.583V2.583A2.586,2.586,0,0,0,305.3,0Zm1.55,7.75A1.55,1.55,0,0,1,305.3,9.3h-2.583a.517.517,0,0,0-.365.151l-1.7,1.7V9.817a.517.517,0,0,0-.517-.517h-1.55a1.55,1.55,0,0,1-1.55-1.55V2.583a1.55,1.55,0,0,1,1.55-1.55H305.3a1.55,1.55,0,0,1,1.55,1.55Z" transform="translate(-296)" fill="#4e5859"/></g><g transform="translate(21.508 2.151)"><g transform="translate(0)"><rect width="3" height="1" transform="translate(0.492 -0.151)" fill="#4e5859"/></g></g><g transform="translate(26.885 2.151)"><g transform="translate(0)"><rect width="2" height="1" transform="translate(0.115 -0.151)" fill="#4e5859"/></g></g><g transform="translate(21.508 4.302)"><g transform="translate(0 0)"><rect width="7" height="2" transform="translate(0.492 -0.302)" fill="#4e5859"/></g></g><g transform="translate(21.508 6.452)"><g transform="translate(0 0)"><rect width="3" height="2" transform="translate(0.492 -0.452)" fill="#4e5859"/></g></g><g transform="translate(16.031 23.201)"><path d="M249.474,359.843l-.378-.6-.873.554.378.6a4.115,4.115,0,0,1-.261,4.777.516.516,0,0,0-.113.323v1.55h1.033v-1.374A5.15,5.15,0,0,0,249.474,359.843Z" transform="translate(-248.224 -359.248)" fill="#4e5859"/></g><g transform="translate(0 4.511)"><path d="M30.483,82.9h-4.65a3.617,3.617,0,0,0-3.609,3.469l-1.557,2.8v-2.14a3.621,3.621,0,0,0-3.617-3.617H15.162l-.014-.011-.009.011H13.95a1.033,1.033,0,0,1-1.033-1.033V81.17A5.167,5.167,0,0,0,15.5,76.7V72.569a5.177,5.177,0,0,0-.62-2.452.517.517,0,0,0-.672-.222L5.463,74.009a.517.517,0,0,0-.3.468V76.7A5.167,5.167,0,0,0,7.75,81.17v1.216a1.033,1.033,0,0,1-1.033,1.033h-3.1A3.621,3.621,0,0,0,0,87.036v9.3H1.033v-9.3a2.586,2.586,0,0,1,2.583-2.583H5.261l4.653,6.5a.517.517,0,0,0,.413.216h.007a.517.517,0,0,0,.413-.207l4.908-6.51h1.4a2.586,2.586,0,0,1,2.583,2.583v4.133a.517.517,0,0,0,.968.251l2.436-4.384H26l-5.038,9.3h1.175l5.04-9.3h.207A3.621,3.621,0,0,0,31,83.419.517.517,0,0,0,30.483,82.9ZM6.2,76.7v-1.9l7.978-3.754a4.133,4.133,0,0,1,.289,1.518V76.7a4.133,4.133,0,0,1-8.267,0ZM10.344,89.78,8.75,87.552h3.274Zm2.461-3.261h-4.8L6.529,84.452h.188a2.067,2.067,0,0,0,2.067-2.067v-.755a5.163,5.163,0,0,0,3.1,0v.755a2.067,2.067,0,0,0,2.067,2.067h.413ZM27.383,86H23.3a2.587,2.587,0,0,1,2.532-2.067h4.082A2.587,2.587,0,0,1,27.383,86Z" transform="translate(0 -69.847)" fill="#4e5859"/></g></svg>