<svg xmlns="http://www.w3.org/2000/svg" width="20.946" height="28.167" viewBox="0 0 20.946 28.167"><g transform="translate(20.946) rotate(90)"><path d="M4.371,108.841H19.2a1.28,1.28,0,1,1,0,2.561H4.371l1.655,1.655a1.28,1.28,0,1,1-1.811,1.811L.375,111.027c-.03-.03-.058-.061-.084-.093l-.018-.025c-.02-.025-.039-.05-.056-.076L.2,110.81c-.018-.027-.035-.055-.05-.084l-.008-.017c-.016-.031-.032-.063-.045-.1l0-.012c-.014-.034-.027-.069-.038-.105,0,0,0-.009,0-.014-.01-.035-.02-.071-.027-.107,0-.011,0-.022-.005-.033-.005-.03-.011-.06-.014-.091a1.262,1.262,0,0,1,0-.256c0-.031.008-.062.014-.092,0-.011,0-.021,0-.032.007-.037.017-.073.027-.108l0-.013c.011-.036.024-.071.038-.106l0-.012c.014-.033.029-.065.046-.1l.008-.017c.016-.029.033-.057.051-.085l.014-.023c.018-.026.037-.051.057-.076l.018-.024c.027-.032.055-.063.084-.093l3.841-3.841a1.28,1.28,0,0,1,1.811,1.811Z" transform="translate(0 -99.649)" fill="#b1b1b1"/><path d="M111.76,63.245a10.465,10.465,0,0,1-8.7-4.638,1.28,1.28,0,0,1,2.125-1.428,7.912,7.912,0,1,0,.011-8.83,1.28,1.28,0,0,1-2.122-1.433,10.473,10.473,0,1,1,8.684,16.33Z" transform="translate(-94.067 -42.299)" fill="#b1b1b1"/></g></svg>