<svg xmlns="http://www.w3.org/2000/svg" width="28.406" height="27" viewBox="0 0 28.406 27"><g transform="translate(0 0)"><path d="M27.929,24.671l-2.4-2.187v-7.25a.835.835,0,0,0-.835-.835H18.918a.835.835,0,0,0-.835.835V15.7l-2.9-2.641a1.45,1.45,0,0,0-1.962,0L.477,24.671A1.457,1.457,0,0,0,1.458,27.2H3.494V38.84a.835.835,0,0,0,.835.835h6.986a.835.835,0,0,0,.835-.835V31.775h4.106V38.84a.835.835,0,0,0,.835.835h6.986a.835.835,0,0,0,.835-.835V27.2h2.036a1.457,1.457,0,0,0,.981-2.533Zm-3.852.863a.835.835,0,0,0-.835.835V38H17.927V30.94a.835.835,0,0,0-.835-.835H11.315a.835.835,0,0,0-.835.835V38H5.165V26.369a.835.835,0,0,0-.835-.835H2.011L14.2,14.424l4.152,3.783a.835.835,0,0,0,1.4-.618V16.069h4.106v6.784a.835.835,0,0,0,.273.618L26.4,25.534Z" transform="translate(0 -12.676)" fill="#434d53"/></g></svg>