<svg xmlns="http://www.w3.org/2000/svg" width="24.444" height="29.299" viewBox="0 0 24.444 29.299"><path d="M94.089,14.114a6.828,6.828,0,0,0,4.99-2.067,6.829,6.829,0,0,0,2.067-4.989,6.829,6.829,0,0,0-2.067-4.989,7.055,7.055,0,0,0-9.979,0,6.828,6.828,0,0,0-2.067,4.989,6.829,6.829,0,0,0,2.067,4.99,6.831,6.831,0,0,0,4.989,2.067ZM90.313,3.281a5.338,5.338,0,0,1,7.551,0,5.1,5.1,0,0,1,1.565,3.775,5.1,5.1,0,0,1-1.565,3.775,5.337,5.337,0,0,1-7.551,0,5.1,5.1,0,0,1-1.565-3.775,5.1,5.1,0,0,1,1.565-3.775Zm0,0" transform="translate(-82.051 0)" fill="#008383"/><path d="M24.385,255.693a17.433,17.433,0,0,0-.237-1.851,14.587,14.587,0,0,0-.455-1.861,9.2,9.2,0,0,0-.765-1.736,6.544,6.544,0,0,0-1.154-1.5,5.087,5.087,0,0,0-1.657-1.041A5.728,5.728,0,0,0,18,247.316a2.148,2.148,0,0,0-1.147.486c-.344.224-.746.483-1.195.77a6.846,6.846,0,0,1-1.546.681,6,6,0,0,1-3.782,0,6.826,6.826,0,0,1-1.545-.681c-.445-.284-.847-.543-1.2-.771a2.145,2.145,0,0,0-1.147-.486,5.721,5.721,0,0,0-2.116.383,5.083,5.083,0,0,0-1.658,1.041,6.544,6.544,0,0,0-1.153,1.5,9.212,9.212,0,0,0-.765,1.736A14.62,14.62,0,0,0,.3,253.842a17.312,17.312,0,0,0-.237,1.852c-.039.56-.059,1.142-.059,1.73A4.865,4.865,0,0,0,1.445,261.1a5.2,5.2,0,0,0,3.723,1.358H19.276A5.2,5.2,0,0,0,23,261.1a4.863,4.863,0,0,0,1.445-3.681c0-.59-.02-1.173-.059-1.731Zm-2.57,4.168a3.5,3.5,0,0,1-2.54.885H5.168a3.5,3.5,0,0,1-2.54-.885,3.177,3.177,0,0,1-.912-2.437c0-.549.018-1.091.054-1.611a15.616,15.616,0,0,1,.215-1.667,12.894,12.894,0,0,1,.4-1.641,7.5,7.5,0,0,1,.623-1.412,4.851,4.851,0,0,1,.848-1.111,3.375,3.375,0,0,1,1.1-.686,3.951,3.951,0,0,1,1.352-.261c.06.032.167.093.341.206.353.23.76.492,1.21.78a8.506,8.506,0,0,0,1.94.867,7.719,7.719,0,0,0,4.838,0,8.517,8.517,0,0,0,1.942-.868c.46-.294.856-.549,1.209-.779.173-.113.281-.174.341-.206a3.954,3.954,0,0,1,1.353.261,3.38,3.38,0,0,1,1.1.686,4.839,4.839,0,0,1,.848,1.111,7.474,7.474,0,0,1,.623,1.411,12.863,12.863,0,0,1,.4,1.641,15.745,15.745,0,0,1,.215,1.668h0c.036.518.055,1.06.055,1.611a3.177,3.177,0,0,1-.912,2.437Zm0,0" transform="translate(0 -233.164)" fill="#008383"/></svg>