<svg xmlns="http://www.w3.org/2000/svg" width="23.625" height="26.88" viewBox="0 0 23.625 26.88"><g transform="translate(-31)"><g transform="translate(31)"><path d="M52.262,3.15h-.787V2.362A2.365,2.365,0,0,0,49.112,0H33.362A2.365,2.365,0,0,0,31,2.362v19a2.365,2.365,0,0,0,2.362,2.362h.787v.787a2.365,2.365,0,0,0,2.362,2.362h15.75a2.365,2.365,0,0,0,2.362-2.362v-19A2.365,2.365,0,0,0,52.262,3.15ZM34.842,6.069a2.347,2.347,0,0,0-.692,1.67V22.155h-.787a.788.788,0,0,1-.787-.787v-19a.788.788,0,0,1,.787-.787h15.75a.788.788,0,0,1,.787.787V3.15H38.74a2.347,2.347,0,0,0-1.67.692Zm4.033-1.344v3.15h-3.15V7.74a.782.782,0,0,1,.231-.557l2.227-2.227a.782.782,0,0,1,.557-.231h.135ZM53.05,24.517a.788.788,0,0,1-.787.787H36.512a.788.788,0,0,1-.787-.787V9.45h3.937a.788.788,0,0,0,.787-.787V4.725H52.262a.788.788,0,0,1,.787.787Z" transform="translate(-31)" fill="#434d53"/></g><g transform="translate(37.3 11.13)"><path d="M164.387,212h-12.6a.787.787,0,1,0,0,1.575h12.6a.787.787,0,1,0,0-1.575Z" transform="translate(-151 -212)" fill="#434d53"/></g><g transform="translate(37.3 14.28)"><path d="M164.387,272h-12.6a.787.787,0,1,0,0,1.575h12.6a.787.787,0,1,0,0-1.575Z" transform="translate(-151 -272)" fill="#434d53"/></g><g transform="translate(37.3 17.43)"><path d="M164.387,332h-12.6a.788.788,0,1,0,0,1.575h12.6a.788.788,0,0,0,0-1.575Z" transform="translate(-151 -332)" fill="#434d53"/></g><g transform="translate(37.3 20.58)"><path d="M164.387,392h-12.6a.787.787,0,1,0,0,1.575h12.6a.787.787,0,1,0,0-1.575Z" transform="translate(-151 -392)" fill="#434d53"/></g></g></svg>