<svg xmlns="http://www.w3.org/2000/svg" width="22.043" height="27.857" viewBox="0 0 22.043 27.857"><g transform="translate(-223.001 -764.143)"><path d="M75.022,22.169a4.328,4.328,0,0,1-1.315-1.791c-1.133-2.4-1.371-5.777-1.371-8.189,0-.011,0-.021,0-.031a7.9,7.9,0,0,0-4.653-7.169V3.1a3.1,3.1,0,0,0-3.1-3.1h-.257a3.1,3.1,0,0,0-3.1,3.1V4.989a7.9,7.9,0,0,0-4.653,7.2c0,2.412-.238,5.791-1.371,8.189a4.328,4.328,0,0,1-1.315,1.791.793.793,0,0,0-.436.9.83.83,0,0,0,.818.638h5.982a4.2,4.2,0,0,0,8.4,0h5.982a.83.83,0,0,0,.818-.638A.794.794,0,0,0,75.022,22.169ZM62.861,3.1a1.469,1.469,0,0,1,1.466-1.468h.257A1.469,1.469,0,0,1,66.05,3.1V4.459a7.9,7.9,0,0,0-3.188,0V3.1Zm1.594,23.119a2.575,2.575,0,0,1-2.569-2.513h5.139A2.575,2.575,0,0,1,64.456,26.222Zm3.286-4.148H56.132a8.555,8.555,0,0,0,.428-.751c1.094-2.157,1.648-5.23,1.648-9.135a6.247,6.247,0,1,1,12.495,0c0,.01,0,.02,0,.03,0,3.889.558,6.951,1.648,9.1a8.565,8.565,0,0,0,.428.751Z" transform="translate(169.566 764.143)" fill="#434d53"/></g></svg>