<svg xmlns="http://www.w3.org/2000/svg" width="23.72" height="23.354" viewBox="0 0 23.72 23.354"><path d="M21,63.686H2.718A3,3,0,0,1,0,60.475v-14.6a3,3,0,0,1,2.718-3.211h5.93a.888.888,0,0,1,0,1.752H2.718a1.363,1.363,0,0,0-1.235,1.459v14.6a1.364,1.364,0,0,0,1.235,1.46H21a1.364,1.364,0,0,0,1.235-1.46v-14.6A1.363,1.363,0,0,0,21,44.419h-5.93a.888.888,0,0,1,0-1.752H21a3,3,0,0,1,2.718,3.211v14.6A3,3,0,0,1,21,63.686Zm0,0" transform="translate(0 -40.332)" fill="#b1b1b1"/><path d="M176.845,6.422H172.4a1.908,1.908,0,0,1-1.73-2.043V2.043A1.908,1.908,0,0,1,172.4,0h4.448a1.908,1.908,0,0,1,1.73,2.043V4.379A1.908,1.908,0,0,1,176.845,6.422ZM172.4,1.752a.272.272,0,0,0-.247.292V4.379a.272.272,0,0,0,.247.292h4.448a.272.272,0,0,0,.247-.292V2.043a.272.272,0,0,0-.247-.292Zm0,0" transform="translate(-162.761 0)" fill="#b1b1b1"/><path d="M109.139,155.171a2.96,2.96,0,1,1,2.471-2.919A2.727,2.727,0,0,1,109.139,155.171Zm0-4.087a1.184,1.184,0,1,0,.988,1.168A1.091,1.091,0,0,0,109.139,151.084Zm0,0" transform="translate(-101.726 -141.158)" fill="#b1b1b1"/><path d="M72.154,282a.817.817,0,0,1-.741-.876v-.584a1.364,1.364,0,0,0-1.236-1.46H66.718a1.364,1.364,0,0,0-1.235,1.46v.584a.752.752,0,1,1-1.483,0v-.584a3,3,0,0,1,2.718-3.211h3.459a3,3,0,0,1,2.718,3.211v.584A.817.817,0,0,1,72.154,282Zm0,0" transform="translate(-61.035 -262.152)" fill="#b1b1b1"/><path d="M304.845,161.751h-5.436a.888.888,0,0,1,0-1.751h5.436a.888.888,0,0,1,0,1.751Zm0,0" transform="translate(-284.831 -151.242)" fill="#b1b1b1"/><path d="M304.845,247.083h-5.436a.888.888,0,0,1,0-1.751h5.436a.888.888,0,0,1,0,1.751Zm0,0" transform="translate(-284.831 -231.904)" fill="#b1b1b1"/><path d="M304.845,332.419h-5.436a.888.888,0,0,1,0-1.751h5.436a.888.888,0,0,1,0,1.751Zm0,0" transform="translate(-284.831 -312.569)" fill="#b1b1b1"/></svg>