<svg xmlns="http://www.w3.org/2000/svg" width="23.495" height="23.495" viewBox="0 0 23.495 23.495"><g transform="translate(0 -0.001)"><g transform="translate(0 0.001)"><g transform="translate(0 0)"><path d="M248.917,22.926h.046a8.331,8.331,0,0,1,8.348,8.389.918.918,0,0,0,.913.922h0a.918.918,0,0,0,.918-.913A10.166,10.166,0,0,0,248.964,21.09h-.05a.918.918,0,0,0,0,1.836Z" transform="translate(-236.619 -20.122)" fill="#b1b1b1"/><path d="M23.493,18.932a3.475,3.475,0,0,0-1.066-2.388A8.536,8.536,0,0,0,19.047,14.3a3.782,3.782,0,0,0-3.884,1.1l-.005.005-1.242,1.233A18.479,18.479,0,0,1,10,13.611l-.121-.121A18.594,18.594,0,0,1,6.858,9.579L8.09,8.338l.005-.005A3.782,3.782,0,0,0,9.2,4.448,8.536,8.536,0,0,0,6.952,1.069,3.492,3.492,0,0,0,2.1.894L2.079.918,2.043.952A7.446,7.446,0,0,0,0,6.406c.019,3.773,2.092,8.088,5.547,11.542l.009.009a22.4,22.4,0,0,0,2.192,1.907.918.918,0,0,0,1.117-1.457A20.522,20.522,0,0,1,6.845,16.65l-.009-.008c-3.115-3.119-4.984-6.948-5-10.245A5.67,5.67,0,0,1,3.324,2.266l.007-.006a1.651,1.651,0,0,1,2.3.083c2.376,2.464,2.2,3.627,1.154,4.7l-1.7,1.714A.918.918,0,0,0,4.9,9.781a18.544,18.544,0,0,0,3.69,5.008l.121.121a18.544,18.544,0,0,0,5.008,3.69.918.918,0,0,0,1.02-.187l1.714-1.7c1.077-1.05,2.24-1.222,4.7,1.154a1.651,1.651,0,0,1,.083,2.3l-.006.007a5.653,5.653,0,0,1-4.089,1.488H17.1a11.9,11.9,0,0,1-4.529-1.072.918.918,0,1,0-.727,1.685A13.539,13.539,0,0,0,17.09,23.5h.051a7.43,7.43,0,0,0,5.4-2.042l.034-.036.024-.026A3.476,3.476,0,0,0,23.493,18.932Z" transform="translate(0 -0.001)" fill="#b1b1b1"/><path d="M295.728,113.341a5.044,5.044,0,0,0-2.383-1.371.918.918,0,1,0-.489,1.769,3.21,3.21,0,0,1,1.575.9,3.28,3.28,0,0,1,.891,1.546l.013.045a.918.918,0,1,0,1.76-.521l-.012-.042A5.051,5.051,0,0,0,295.728,113.341Z" transform="translate(-278.775 -106.8)" fill="#b1b1b1"/></g></g></g></svg>