<svg xmlns="http://www.w3.org/2000/svg" width="27.807" height="27.807" viewBox="0 0 27.807 27.807"><path d="M1.629,1.629H6.517V0H0V6.517H1.629Zm0,0" fill="#434d53"/><path d="M392,0V1.629h4.888V6.517h1.629V0Zm0,0" transform="translate(-370.711)" fill="#434d53"/><path d="M396.888,396.888H392v1.629h6.517V392h-1.629Zm0,0" transform="translate(-370.711 -370.711)" fill="#434d53"/><path d="M1.629,392H0v6.517H6.517v-1.629H1.629Zm0,0" transform="translate(0 -370.711)" fill="#434d53"/><path d="M61,60v8.146h8.146V63.259h1.629V61.629H69.146V60Zm6.517,6.517H62.629V61.629h4.888Zm0,0" transform="translate(-57.687 -56.741)" fill="#434d53"/><path d="M280.776,279.776v-8.146h-3.259V270h-1.629v1.629H271v1.629h1.629v1.629H271v1.629h1.629v3.259Zm-6.517-6.517h4.888v4.888h-4.888Zm0,0" transform="translate(-256.282 -255.336)" fill="#434d53"/><path d="M65.888,241.629h3.259V240H61v1.629h3.259v1.629H62.629v1.629h1.629v3.259H62.629v1.629h1.629v1.629h8.146v-1.629H70.776v-1.629H69.146v1.629H65.888v-1.629h1.629v-1.629H65.888Zm0,0" transform="translate(-57.687 -226.966)" fill="#434d53"/><path d="M121,120h1.629v1.629H121Zm0,0" transform="translate(-114.429 -113.483)" fill="#434d53"/><path d="M361,120h1.629v1.629H361Zm0,0" transform="translate(-341.394 -113.483)" fill="#434d53"/><path d="M305.888,68.146h3.259V60H301v8.146h3.259v1.629h1.629Zm-3.259-1.629V61.629h4.888v4.888Zm0,0" transform="translate(-284.653 -56.741)" fill="#434d53"/><path d="M394.259,241.629V240H391v1.629Zm0,0" transform="translate(-369.765 -226.966)" fill="#434d53"/><path d="M361,360h1.629v1.629H361Zm0,0" transform="translate(-341.394 -340.448)" fill="#434d53"/><path d="M241,330h1.629v1.629H241Zm0,0" transform="translate(-227.911 -312.078)" fill="#434d53"/><path d="M181,303.259h1.629V300H181Zm0,0" transform="translate(-171.17 -283.707)" fill="#434d53"/><path d="M211,270h1.629v1.629H211Zm0,0" transform="translate(-199.541 -255.336)" fill="#434d53"/><path d="M62.629,330H61v3.259h1.629Zm0,0" transform="translate(-57.687 -312.078)" fill="#434d53"/><path d="M61,420h1.629v1.629H61Zm0,0" transform="translate(-57.687 -397.19)" fill="#434d53"/><path d="M241,60h1.629v1.629H241Zm0,0" transform="translate(-227.911 -56.741)" fill="#434d53"/><path d="M241,123.259h1.629V120H241Zm0,0" transform="translate(-227.911 -113.483)" fill="#434d53"/><path d="M242.629,211.629V210H241v3.259h6.517v-1.629Zm0,0" transform="translate(-227.911 -198.595)" fill="#434d53"/></svg>