<svg xmlns="http://www.w3.org/2000/svg" width="18" height="18" viewBox="0 0 18 18"><g transform="translate(10.587 6.705)"><path d="M300.318,190a.318.318,0,1,0,.318.318A.318.318,0,0,0,300.318,190Z" transform="translate(-300 -190)" fill="#8c847b"/></g><g transform="translate(0)"><path d="M17.588,15.6,12.9,10.907a6.968,6.968,0,0,0,1.167-3.876,7.031,7.031,0,1,0-7.031,7.031A6.968,6.968,0,0,0,10.907,12.9l1.3,1.3h0L15.6,17.588A1.406,1.406,0,1,0,17.588,15.6Zm-6.847-3.445h0a6.335,6.335,0,1,1,1.413-1.413A6.359,6.359,0,0,1,10.742,12.154Zm.738.319a7.055,7.055,0,0,0,.994-.994l1,1a8.533,8.533,0,0,1-.994.994Zm5.612,4.618a.7.7,0,0,1-.994,0l-3.122-3.122a9.238,9.238,0,0,0,.994-.994L17.091,16.1a.7.7,0,0,1,0,.994Z" transform="translate(0 0)" fill="#434d53"/></g><g transform="translate(1.273 1.273)"><path d="M45.094,40a5.094,5.094,0,1,0,5.094,5.094A5.1,5.1,0,0,0,45.094,40Zm0,9.551a4.457,4.457,0,1,1,4.457-4.457A4.462,4.462,0,0,1,45.094,49.551Z" transform="translate(-40 -40)" fill="#434d53"/></g><g transform="translate(6.879 2.87)"><path d="M193.886,82.454A3.826,3.826,0,0,0,190.318,80a.318.318,0,1,0,0,.637,3.206,3.206,0,0,1,2.973,2.045.318.318,0,1,0,.594-.228Z" transform="translate(-190 -80)" fill="#434d53"/></g></svg>