<svg xmlns="http://www.w3.org/2000/svg" width="22.629" height="22.629" viewBox="0 0 22.629 22.629"><path d="M19.977,1.768H18.916V0H17.149V1.768H5.48V0H3.713V1.768H2.652A2.655,2.655,0,0,0,0,4.42V19.977a2.655,2.655,0,0,0,2.652,2.652H19.977a2.655,2.655,0,0,0,2.652-2.652V4.42A2.655,2.655,0,0,0,19.977,1.768Zm.884,18.209a.885.885,0,0,1-.884.884H2.652a.885.885,0,0,1-.884-.884V8.309H20.861Zm0-13.436H1.768V4.42a.885.885,0,0,1,.884-.884H3.713V5.3H5.48V3.536H17.149V5.3h1.768V3.536h1.061a.885.885,0,0,1,.884.884Z" fill="#b1b1b1"/></svg>