<svg xmlns="http://www.w3.org/2000/svg" width="24.72" height="24.72" viewBox="0 0 24.72 24.72"><path d="M22,10.259a10.488,10.488,0,0,0-1.36-3.214l1.236-2.6-1.73-1.73-2.6,1.236a9.535,9.535,0,0,0-3.09-1.236L13.6,0H11.124l-.989,2.719a9.834,9.834,0,0,0-3.09,1.36L4.45,2.843,2.719,4.45l1.236,2.6a9.535,9.535,0,0,0-1.236,3.09L0,11.124V13.6l2.719.989a11.539,11.539,0,0,0,1.236,3.09l-1.236,2.6L4.45,22l2.6-1.236a9.834,9.834,0,0,0,3.09,1.36l.989,2.6H13.6L14.585,22c.371-.124.865-.247,1.236-.371l-1.978-1.978A7.428,7.428,0,1,1,12.36,4.944a7.309,7.309,0,0,1,7.292,8.4l2.1,2.1A2.909,2.909,0,0,0,22,14.461L24.72,13.6V11.124Z" fill="#b1b1b1"/><g transform="translate(7.458 7.23)"><path d="M171.238,164.022l-7.292-7.292a4.95,4.95,0,0,0-5.809-6.8l2.225,2.225a2.447,2.447,0,1,1-3.461,3.461l-2.225-2.1a4.885,4.885,0,0,0,6.551,5.809l7.292,7.293a1.792,1.792,0,0,0,2.6,0A1.906,1.906,0,0,0,171.238,164.022Z" transform="translate(-154.47 -149.745)" fill="#b1b1b1"/></g></svg>