<svg xmlns="http://www.w3.org/2000/svg" width="26.365" height="26.365" viewBox="0 0 26.365 26.365"><g transform="translate(0)"><path d="M172.143,137.714h1.545v1.545h-1.545Z" transform="translate(-163.279 -130.622)" fill="#b4b2b2"/><path d="M172.143,206.571h1.545v1.545h-1.545Z" transform="translate(-163.279 -195.934)" fill="#b4b2b2"/><path d="M309.857,206.571H311.4v1.545h-1.545Z" transform="translate(-293.901 -195.934)" fill="#b4b2b2"/><path d="M378.714,206.571h1.545v1.545h-1.545Z" transform="translate(-359.212 -195.934)" fill="#b4b2b2"/><path d="M309.857,275.429H311.4v1.545h-1.545Z" transform="translate(-293.901 -261.246)" fill="#b4b2b2"/><path d="M378.714,275.429h1.545v1.545h-1.545Z" transform="translate(-359.212 -261.246)" fill="#b4b2b2"/><path d="M309.857,344.286H311.4v1.545h-1.545Z" transform="translate(-293.901 -326.557)" fill="#b4b2b2"/><path d="M378.714,344.286h1.545v1.545h-1.545Z" transform="translate(-359.212 -326.557)" fill="#b4b2b2"/><path d="M309.857,413.143H311.4v1.545h-1.545Z" transform="translate(-293.901 -391.868)" fill="#b4b2b2"/><path d="M378.714,413.143h1.545v1.545h-1.545Z" transform="translate(-359.212 -391.868)" fill="#b4b2b2"/><path d="M103.286,206.571h1.545v1.545h-1.545Z" transform="translate(-97.967 -195.934)" fill="#b4b2b2"/><path d="M172.143,275.429h1.545v1.545h-1.545Z" transform="translate(-163.279 -261.246)" fill="#b4b2b2"/><path d="M103.286,275.429h1.545v1.545h-1.545Z" transform="translate(-97.967 -261.246)" fill="#b4b2b2"/><path d="M172.143,344.286h1.545v1.545h-1.545Z" transform="translate(-163.279 -326.557)" fill="#b4b2b2"/><path d="M103.286,344.286h1.545v1.545h-1.545Z" transform="translate(-97.967 -326.557)" fill="#b4b2b2"/><path d="M24.592,24.82V7.092H13.955V3.406l-1.773.3V0H3.546V5.141l-1.773.3V24.82H0v1.545H26.365V24.82ZM23.047,8.636V24.82H13.955V8.636ZM5.091,1.545h5.547V3.959l-5.547.924Zm-1.773,5.2L12.41,5.23V24.82h-2V21.275H5.319V24.82h-2ZM8.864,24.82h-2v-2h2Z" fill="#b4b2b2"/></g></svg>